<?xml version="1.0" standalone="no"?>
<!DOCTYPE svg PUBLIC "-//W3C//DTD SVG 20010904//EN"
 "http://www.w3.org/TR/2001/REC-SVG-20010904/DTD/svg10.dtd">
<svg version="1.0" xmlns="http://www.w3.org/2000/svg"
 width="400.000000pt" height="367.200000pt" viewBox="0 0 400.000000 367.200000"
 preserveAspectRatio="xMidYMid meet">
<metadata>
Created by potrace 1.13, written by Peter Selinger 2001-2015
</metadata>
<g transform="translate(0.000000,367.200000) scale(0.080000,-0.080000)"
fill="#000000" stroke="none">
<path d="M1282 4530 c-148 -98 -293 -273 -348 -416 -14 -36 -21 -43 -53 -49
-54 -10 -162 -54 -199 -82 -39 -30 -72 -79 -72 -109 0 -18 -8 -23 -48 -28
-135 -19 -250 -82 -354 -195 -108 -118 -168 -272 -168 -436 0 -116 16 -188 62
-285 33 -69 57 -101 126 -170 l85 -85 -11 -40 c-42 -159 -41 -469 2 -641 131
-524 561 -1001 1046 -1159 47 -15 87 -29 88 -31 2 -1 -15 -26 -39 -56 -84
-106 -147 -275 -194 -518 -29 -154 -37 -230 -25 -230 6 0 10 15 10 33 0 45 34
234 60 340 17 66 26 87 39 87 24 0 117 -28 174 -53 40 -17 48 -24 44 -41 -24
-99 -56 -262 -62 -308 -6 -51 -4 -58 11 -58 13 0 15 3 8 10 -33 33 85 479 170
648 58 113 46 106 162 88 305 -47 684 -66 934 -46 74 6 142 13 150 15 39 12
229 -451 271 -660 7 -33 14 -53 16 -44 6 23 -41 202 -81 312 l-34 94 61 36
c60 34 132 67 147 67 11 0 104 -253 145 -394 19 -66 37 -122 40 -124 13 -13 2
38 -30 146 -69 234 -136 396 -223 540 -24 40 -43 74 -41 76 2 1 68 23 147 49
129 42 287 112 382 170 83 50 227 164 303 240 123 123 209 243 288 402 106
213 149 414 149 693 l0 117 58 18 c146 46 332 203 404 342 63 121 81 207 76
359 -8 211 -57 325 -208 477 -73 74 -99 93 -180 132 -118 56 -194 72 -335 71
-95 -1 -122 -5 -195 -31 -47 -16 -92 -33 -101 -37 -13 -6 -21 5 -39 51 -42
107 -141 289 -197 364 -113 151 -254 276 -410 363 -52 30 -93 46 -114 46 -31
0 -25 -5 59 -50 346 -184 571 -479 687 -902 54 -201 58 -189 -34 -116 -441
352 -872 547 -1405 638 -403 69 -1003 44 -1446 -59 -74 -17 -81 -15 -69 17 23
62 98 170 172 249 72 75 155 139 263 200 l39 22 -37 1 c-29 0 -56 -13 -126
-60z m918 -370 c446 -34 822 -143 1192 -345 122 -66 292 -174 286 -180 -2 -2
-53 9 -113 26 -115 30 -337 77 -490 103 -402 68 -889 73 -1300 15 -289 -41
-630 -130 -875 -229 l-55 -22 -72 76 c-78 83 -133 179 -133 233 0 74 62 136
173 172 186 61 570 127 902 154 95 8 361 6 485 -3z m600 -395 c168 -16 396
-53 582 -95 72 -16 132 -31 134 -33 2 -2 -49 -1 -114 1 -145 5 -221 -11 -352
-75 -79 -38 -108 -59 -181 -132 -75 -75 -94 -101 -137 -192 -78 -160 -97 -237
-97 -399 1 -115 5 -150 28 -235 78 -286 239 -489 482 -610 139 -69 230 -89
370 -82 230 11 431 126 558 320 125 189 171 413 132 638 -58 334 -263 595
-560 716 -99 40 -80 42 48 4 114 -34 166 -69 284 -195 199 -212 335 -492 389
-806 21 -121 15 -527 -9 -630 -57 -243 -158 -442 -319 -630 -293 -342 -732
-544 -1302 -599 -356 -35 -985 24 -1340 125 -119 34 -258 100 -378 180 -282
188 -553 544 -652 860 -54 171 -80 424 -57 564 l7 45 8 -50 c11 -69 53 -200
84 -260 72 -143 194 -281 304 -345 148 -85 359 -109 510 -57 244 84 445 304
522 569 73 253 54 516 -52 735 -105 216 -296 379 -489 414 -60 11 -263 8 -298
-5 -11 -4 -8 0 6 8 41 24 280 103 424 141 458 121 959 158 1465 110z m576
-346 c186 -34 359 -191 419 -382 45 -141 31 -301 -37 -431 -40 -75 -163 -201
-235 -239 -66 -35 -191 -67 -263 -67 -240 0 -475 177 -540 406 -24 85 -27 225
-5 309 51 194 220 357 415 401 70 16 170 17 246 3z m-2061 -223 c91 -24 202
-95 246 -158 23 -32 22 -32 -24 8 -155 135 -417 76 -508 -114 -34 -71 -37
-180 -9 -256 28 -72 95 -147 165 -184 44 -24 62 -27 145 -27 84 0 101 3 145
27 112 59 175 157 184 283 6 102 18 60 20 -71 3 -235 -136 -422 -368 -494 -70
-22 -187 -26 -261 -9 -127 29 -270 138 -332 255 -54 100 -74 259 -47 374 41
178 208 338 392 376 69 15 176 10 252 -10z m238 -268 c22 -27 22 -49 -4 -82
-40 -51 -119 -25 -119 39 0 67 78 94 123 43z"/>
<path d="M2010 2503 c-48 -8 -125 -36 -161 -59 -135 -84 -112 -218 51 -302 34
-17 89 -37 121 -44 32 -7 59 -16 59 -21 0 -5 -20 -29 -44 -53 -40 -40 -48 -44
-93 -44 -37 0 -67 9 -112 32 -33 17 -64 28 -68 25 -11 -12 27 -45 82 -69 l53
-23 17 -70 c20 -82 75 -220 109 -273 65 -101 122 -137 216 -136 206 2 310 164
310 484 0 98 3 120 17 131 21 18 73 89 73 101 0 20 -28 4 -55 -33 -34 -46 -94
-98 -142 -123 -59 -30 -163 -18 -226 27 -33 22 -23 37 25 37 36 0 149 43 187
71 45 33 65 78 59 133 -11 92 -126 173 -286 202 -75 13 -141 16 -192 7z m0
-104 c17 -30 8 -62 -21 -78 -24 -13 -29 -13 -53 2 -28 19 -36 63 -14 85 20 20
76 15 88 -9z m149 -343 c12 -13 47 -36 79 -52 73 -37 155 -39 219 -6 23 12 46
22 50 22 25 0 5 -256 -27 -342 -41 -110 -131 -178 -238 -178 -122 0 -200 89
-273 312 -37 113 -37 133 -3 136 48 4 113 52 140 105 18 33 24 34 53 3z"/>
<path d="M3040 3025 c-107 -52 -199 -101 -204 -108 -15 -23 1 -47 46 -67 24
-10 121 -53 217 -95 95 -42 180 -75 189 -73 24 5 38 34 23 51 -6 8 -86 48
-177 88 -91 40 -167 75 -169 78 -2 4 69 40 157 81 157 74 184 93 172 124 -11
30 -59 15 -254 -79z"/>
</g>
</svg>
