<?xml version="1.0" standalone="no"?><!DOCTYPE svg PUBLIC "-//W3C//DTD SVG 1.1//EN" "http://www.w3.org/Graphics/SVG/1.1/DTD/svg11.dtd"><svg t="1613265484292" class="icon" viewBox="0 0 1024 1024" version="1.1" xmlns="http://www.w3.org/2000/svg" p-id="6261" xmlns:xlink="http://www.w3.org/1999/xlink" width="200" height="200"><defs><style type="text/css"></style></defs><path d="M664.349315 763.576759h4.983501v16.10684h-4.983501zM433.10565 771.780605h-15.528671a1.579985 1.579985 0 0 1-0.150426 0.176008c1.946328 2.50096 4.405333 4.555759 7.374968 6.166444 3.472078-1.862417 6.241145-3.976568 8.304129-6.342452z" p-id="6262"></path><path d="M442.770777 763.777327h-36.846186v37.70167h36.846186v-37.70167zM680.052972 763.475452h5.033643v16.208147h-5.033643z" p-id="6263"></path><path d="M825.425897 278.229792c-78.336136-62.058404-179.054025-87.49268-274.685059-111.908766-76.301803-19.329231-104.787578-23.39892-154.63794-53.919027-36.625152-23.39892-118.012787-64.092737-125.133975-54.937216-8.139378 8.139378 17.294898 35.606962 27.468608 69.179592 15.260565 47.816029 3.052522 86.47449-35.606962 115.978455-89.527013 68.162426-206.522634 187.193403-198.383256 352.004029C75.638189 819.461557 281.143657 975.116663 532.429797 958.838931c252.303306-16.277732 422.201811-179.055049 427.288666-403.888723 3.050476-108.857267-44.765553-203.471135-134.292566-276.720416zM528.359085 589.540004l38.658461-40.693818 41.712007-42.729173c4.069689-3.051499 3.051499-5.086855-2.034332-6.104022-3.051499 0-27.468608-5.086855-51.884695-10.172687l-47.816028-10.17371c-1.017166-55.954383 15.259542-91.562369 42.729173-95.631034 35.606962-4.069689 72.232115 42.72815 85.457324 128.186497 11.1919 72.232115-13.225209 134.290519-46.797839 137.343042-23.399943 3.050476-44.76453-20.348444-60.024071-60.025095z m315.378877 13.225209c-21.364587 5.086855-38.659485-22.381753-50.867528-63.076594 13.225209-12.208043 24.416086-23.39892 35.606962-32.55444 19.330254-16.277732 35.607986-32.555463 38.659485-35.606962s2.034333-5.086855-2.034333-6.104022c-3.051499 0-23.39892-3.051499-44.763506-7.121188-12.209066-3.051499-26.451442-5.086855-41.712007-8.139377 0-48.833195 13.226233-94.613868 41.712007-99.700723 31.537274-6.104021 59.005882 53.92005 67.14526 121.06531 8.139378 81.388658-16.277732 124.116809-43.74634 131.237996z" fill="#08af63" p-id="6264" data-spm-anchor-id="a313x.7781069.0.i6" class="selected"></path></svg>